<?xml version="1.0" standalone="no"?>
<!DOCTYPE svg PUBLIC "-//W3C//DTD SVG 20010904//EN"
 "http://www.w3.org/TR/2001/REC-SVG-20010904/DTD/svg10.dtd">
<svg version="1.0" xmlns="http://www.w3.org/2000/svg"
 width="1261.000000pt" height="1045.000000pt" viewBox="0 0 1261.000000 1045.000000"
 preserveAspectRatio="xMidYMid meet">

<g transform="translate(0.000000,1045.000000) scale(0.100000,-0.100000)"
fill="#000000" stroke="none">
<path d="M6260 10442 c0 -6 304 -284 675 -617 371 -334 675 -609 675 -611 0
-3 -28 15 -62 39 -262 186 -1655 1160 -1663 1163 -27 11 -528 -90 -572 -115
-7 -4 367 -346 971 -888 540 -486 991 -892 1002 -904 10 -12 -503 344 -1141
791 -638 447 -1177 824 -1197 837 l-37 25 -163 -81 c-90 -44 -171 -86 -181
-93 -17 -12 94 -115 1197 -1106 1038 -933 1300 -1172 1215 -1106 -8 6 -626
440 -1374 964 -748 524 -1374 963 -1392 976 l-32 24 -98 -79 c-54 -44 -111
-90 -127 -103 l-28 -24 1380 -1239 c759 -682 1378 -1241 1377 -1243 -2 -2
-693 481 -1536 1072 -844 592 -1537 1076 -1541 1076 -3 0 -45 -48 -92 -107
l-86 -108 38 -36 c20 -20 676 -609 1457 -1309 1427 -1279 1483 -1330 1454
-1314 -9 5 -734 512 -1613 1128 -878 615 -1599 1117 -1601 1114 -11 -11 -147
-303 -179 -384 -125 -321 -203 -650 -236 -989 -14 -151 -18 -432 -5 -443 13
-12 2478 -1042 2494 -1042 7 0 255 90 552 200 297 110 544 200 549 200 5 0 74
-29 154 -64 l144 -63 938 950 c517 522 941 954 942 958 7 18 -72 110 -136 159
-183 139 -414 198 -671 171 -64 -6 -153 -20 -198 -30 l-83 -19 0 23 c0 55 15
69 116 112 185 78 378 126 580 143 197 17 365 -3 551 -65 189 -63 330 -153
489 -310 97 -96 102 -103 114 -160 38 -185 153 -310 320 -349 61 -14 68 -20
167 -118 89 -88 103 -99 103 -78 0 45 -68 363 -105 490 -375 1291 -1467 2284
-2777 2524 -237 44 -728 82 -728 58z"/>
<path d="M7913 6443 c-527 -558 -960 -1019 -961 -1024 -2 -6 41 -56 97 -113
l101 -102 0 -85 0 -85 -68 -67 -68 -67 -77 0 -77 0 0 -88 0 -88 -68 -67 -68
-67 -77 0 -77 0 0 -85 0 -85 -72 -70 -73 -69 -72 -1 -73 0 0 -83 0 -83 -73
-72 -72 -72 -77 0 -77 0 -113 90 -113 90 -75 -78 c-42 -42 -118 -123 -171
-179 l-95 -102 -245 210 c-134 116 -248 215 -253 219 -5 5 61 81 153 177 l162
168 -38 33 c-21 18 -62 52 -91 75 l-54 41 -816 72 c-449 40 -834 74 -854 76
l-37 3 16 -25 c96 -148 271 -359 433 -520 801 -800 1921 -1171 3045 -1009 695
100 1317 386 1850 850 817 711 1283 1809 1216 2867 -7 108 -16 219 -19 245
l-7 48 -190 -211 c-104 -116 -204 -228 -222 -248 l-32 -37 -119 119 -120 118
0 63 c-1 85 -17 140 -59 203 -48 71 -119 110 -225 125 l-36 5 -959 -1015z"/>
<path d="M10830 1125 l0 -1045 145 0 145 0 0 1045 0 1045 -145 0 -145 0 0
-1045z"/>
<path d="M11560 1125 l0 -1045 140 0 140 0 0 1045 0 1045 -140 0 -140 0 0
-1045z"/>
<path d="M960 2098 c-304 -20 -572 -163 -750 -399 -230 -306 -272 -743 -104
-1098 57 -121 113 -198 210 -291 133 -126 262 -199 443 -248 89 -24 112 -26
301 -26 183 -1 214 2 289 22 93 26 189 66 269 115 l52 31 0 178 0 177 -77 -55
c-215 -155 -475 -216 -711 -168 -262 53 -474 272 -533 549 -19 90 -16 275 5
370 63 282 283 498 560 546 114 19 313 7 416 -26 107 -34 197 -80 278 -140 35
-25 66 -45 67 -43 2 2 7 73 11 159 l7 155 -72 43 c-199 118 -413 167 -661 149z"/>
<path d="M12381 2090 c-39 -9 -77 -35 -104 -71 -65 -88 -20 -237 82 -270 109
-36 213 17 241 123 25 92 -34 194 -125 217 -49 12 -46 12 -94 1z"/>
<path d="M2396 1384 c-206 -50 -364 -235 -412 -482 -16 -86 -18 -270 -4 -359
42 -259 191 -442 406 -497 37 -9 103 -16 162 -16 165 0 268 43 377 157 l55 58
0 -83 0 -82 145 0 145 0 0 640 0 640 -145 0 -145 0 0 -100 c0 -55 -3 -100 -8
-100 -4 0 -18 20 -31 45 -44 83 -139 149 -258 180 -71 19 -208 18 -287 -1z
m370 -261 c89 -30 177 -140 204 -255 15 -66 12 -236 -6 -303 -30 -117 -94
-199 -192 -247 -61 -30 -75 -33 -158 -33 -78 1 -98 5 -146 28 -130 64 -198
200 -198 397 0 235 103 392 281 430 57 12 153 4 215 -17z"/>
<path d="M4200 1391 c-92 -30 -149 -82 -198 -181 l-27 -55 -3 103 -3 102 -144
0 -145 0 0 -640 0 -640 144 0 144 0 5 383 c5 416 12 473 64 570 49 89 119 122
238 115 47 -3 87 -12 113 -26 l40 -20 47 111 c26 62 50 117 52 124 3 6 -20 20
-54 33 -63 24 -226 37 -273 21z"/>
<path d="M5292 1380 c-106 -28 -164 -64 -248 -153 l-74 -79 0 106 0 106 -135
0 -135 0 0 -640 0 -640 144 0 144 0 4 403 c5 461 7 470 85 557 51 57 112 92
191 109 125 26 232 4 298 -63 71 -70 77 -116 82 -599 l4 -407 145 0 145 0 -4
498 c-4 472 -5 500 -25 560 -44 131 -138 212 -285 247 -89 21 -246 18 -336 -5z"/>
<path d="M6733 1381 c-228 -56 -409 -236 -468 -466 -23 -89 -30 -229 -16 -325
39 -263 184 -447 416 -526 68 -23 101 -28 215 -32 165 -5 252 11 365 67 96 47
189 129 256 224 27 39 49 74 49 78 0 4 -35 26 -77 49 -43 24 -97 53 -119 67
l-42 23 -32 -50 c-47 -73 -130 -145 -198 -170 -78 -30 -210 -38 -283 -17 -141
41 -233 159 -255 328 l-7 49 518 0 518 0 -6 98 c-27 405 -259 624 -660 621
-61 0 -131 -8 -174 -18z m339 -246 c93 -33 170 -126 193 -232 l7 -33 -356 0
-356 0 6 28 c29 121 129 221 251 252 54 13 199 5 255 -15z"/>
<path d="M9533 1386 c-190 -46 -340 -207 -405 -433 -32 -109 -32 -369 0 -484
33 -124 79 -205 157 -285 111 -112 219 -154 398 -154 158 0 262 42 365 146
l62 64 0 -80 0 -80 145 0 145 0 0 640 0 640 -145 0 -145 0 0 -107 0 -108 -30
51 c-53 94 -160 168 -278 193 -68 14 -203 13 -269 -3z m361 -262 c67 -23 147
-100 180 -173 37 -84 52 -209 37 -314 -36 -255 -226 -400 -449 -343 -172 44
-256 180 -256 416 0 207 61 332 196 401 81 41 194 46 292 13z"/>
<path d="M7864 948 c112 -227 261 -531 332 -675 71 -144 131 -262 134 -262 4
0 527 1052 652 1312 l19 38 -158 -3 -157 -3 -157 -365 c-87 -201 -166 -395
-175 -432 -16 -62 -34 -90 -34 -53 0 39 -69 219 -200 523 l-144 332 -158 0
-157 0 203 -412z"/>
<path d="M12280 720 l0 -640 145 0 145 0 0 640 0 640 -145 0 -145 0 0 -640z"/>
</g>
</svg>
